<?xml version="1.0" standalone="no"?>
<!DOCTYPE svg PUBLIC "-//W3C//DTD SVG 20010904//EN"
 "http://www.w3.org/TR/2001/REC-SVG-20010904/DTD/svg10.dtd">
<svg version="1.0" xmlns="http://www.w3.org/2000/svg"
 width="444.000000pt" height="411.000000pt" viewBox="0 0 444.000000 411.000000"
 preserveAspectRatio="xMidYMid meet">

<g transform="translate(0.000000,411.000000) scale(0.100000,-0.100000)"
fill="#000000" stroke="none">
<path d="M1706 3969 c-142 -35 -302 -121 -414 -223 -107 -98 -138 -181 -87
-232 32 -32 39 -29 183 102 188 170 330 229 547 227 146 -1 240 -23 370 -87
87 -43 226 -148 239 -181 8 -22 68 -45 97 -38 38 9 49 23 49 60 0 48 -21 82
-85 141 -119 109 -273 192 -432 233 -106 27 -354 26 -467 -2z"/>
<path d="M1818 3649 c-107 -25 -275 -146 -312 -223 -38 -80 -9 -133 66 -122
37 6 52 16 102 72 33 37 80 76 109 92 47 24 62 27 157 27 94 0 111 -3 163 -27
37 -17 80 -50 115 -87 31 -32 67 -62 80 -66 32 -9 77 11 91 42 37 81 -147 241
-334 288 -64 16 -178 18 -237 4z"/>
<path d="M1231 3157 c-19 -7 -44 -25 -55 -40 l-21 -28 0 -1102 c0 -1169 -1
-1151 46 -1193 20 -18 48 -19 440 -23 l418 -3 3 493 c3 538 2 529 61 573 27
20 44 21 310 26 l282 5 -3 600 c-2 389 -6 612 -13 633 -23 70 14 67 -749 69
-515 2 -693 -1 -719 -10z m323 -375 c14 -16 16 -44 17 -177 0 -198 2 -195
-123 -195 -129 0 -128 -1 -128 195 0 196 -1 195 128 195 74 0 92 -3 106 -18z
m-2 -649 c16 -14 18 -34 18 -176 0 -202 3 -197 -126 -197 -126 0 -124 -3 -124
197 0 193 0 193 127 193 66 0 91 -4 105 -17z"/>
<path d="M2321 1701 c-74 -6 -86 -10 -106 -33 -22 -25 -23 -36 -30 -285 -4
-142 -5 -448 -2 -681 6 -456 6 -453 59 -484 18 -10 137 -13 540 -13 l518 0 32
33 33 32 0 685 0 685 -33 32 -32 33 -448 1 c-246 1 -485 -2 -531 -5z m199
-453 c0 -172 1 -362 1 -423 0 -60 0 -192 0 -292 l-1 -183 -95 0 -95 0 0 605 0
605 95 0 95 0 0 -312z m700 -293 l0 -605 -220 0 -220 0 0 605 0 605 220 0 220
0 0 -605z"/>
</g>
</svg>
