<?xml version="1.0" encoding="utf-8"?>
<svg id="master-artboard" viewBox="0 0 1400 980" version="1.1" xmlns="http://www.w3.org/2000/svg" x="0px" y="0px" style="enable-background:new 0 0 1400 980;" width="1400px" height="980px"><g transform="matrix(0.19140623807907103, 0, 0, 0.19140623807907103, 210.0000300816464, -0.000021720421500504017)"><g transform="translate(0.000000,5120.000000) scale(0.100000,-0.100000)" fill="#000000" stroke="none">
<path d="M13805 38549 c-127 -17 -233 -68 -329 -158 -79 -75 -131 -158 -161&#10;-256 -14 -44 -126 -457 -249 -917 -224 -838 -224 -838 -263 -883 -22 -24 -54&#10;-71 -71 -103 -34 -63 -47 -109 -382 -1362 -105 -393 -259 -967 -342 -1275&#10;-391 -1459 -397 -1483 -433 -1767 -34 -270 -35 -702 -1 -968 143 -1132 736&#10;-2140 1650 -2805 316 -229 724 -437 1100 -560 100 -33 238 -70 1016 -279 423&#10;-113 5804 -1555 6200 -1661 371 -99 1180 -316 1530 -410 157 -42 879 -235&#10;1605 -430 1162 -311 2700 -723 3770 -1010 193 -52 663 -178 1045 -280 735&#10;-197 3738 -1002 6198 -1661 810 -217 1505 -401 1545 -410 502 -106 1012 -44&#10;1482 180 371 177 703 467 940 821 78 116 200 360 245 490 17 49 300 1095 630&#10;2325 329 1229 624 2329 655 2445 31 115 58 212 60 214 3 2 82 -17 177 -42 309&#10;-83 560 -114 838 -104 996 38 1886 612 2334 1505 102 203 195 483 203 612 15&#10;232 -123 469 -332 570 -38 18 -422 126 -1035 290 -536 144 -1353 363 -1815&#10;486 -462 124 -964 258 -1115 299 -151 41 -1184 317 -2295 615 -1111 298 -2303&#10;617 -2650 710 -799 214 -2050 549 -2575 690 -223 60 -1003 269 -1735 465 -731&#10;196 -2268 608 -3415 915 -1147 307 -2524 676 -3060 820 -536 144 -1191 319&#10;-1455 390 -264 71 -1490 399 -2725 730 -1235 331 -2301 617 -2370 635 -69 18&#10;-1041 279 -2162 579 -1781 478 -2137 569 -2183 565 -5 -1 -37 -5 -70 -10z" style="fill: rgb(18, 175, 232);"/>
<path d="M41672 27112 c-11 -42 -273 -1020 -582 -2172 -308 -1152 -572 -2133&#10;-586 -2180 -35 -114 -106 -295 -160 -403 -24 -49 -44 -90 -44 -92 0 -11 285&#10;36 422 71 479 119 923 370 1273 719 151 150 233 250 350 425 243 363 389 765&#10;441 1210 20 175 15 527 -11 685 -80 503 -275 951 -581 1335 -111 140 -405 423&#10;-490 473 -7 4 -18 -22 -32 -71z" style="fill: rgb(18, 175, 232);"/>
<path d="M8425 26133 c-286 -19 -592 -106 -854 -244 -660 -346 -1096 -999&#10;-1161 -1739 -8 -90 -10 -1453 -8 -4840 3 -4396 5 -4722 21 -4812 43 -246 96&#10;-414 192 -616 114 -238 254 -431 452 -622 349 -339 754 -533 1253 -601 126&#10;-17 404 -14 545 6 493 69 931 292 1276 652 317 331 512 731 586 1203 17 110&#10;18 338 18 4870 0 4533 -1 4761 -18 4874 -83 546 -349 1020 -772 1374 -415 348&#10;-982 531 -1530 495z" style="fill: rgb(18, 175, 232);"/>
<path d="M20886 25083 c-3 -10 -116 -432 -251 -938 -136 -506 -278 -1037 -316&#10;-1180 -39 -143 -142 -528 -229 -855 -728 -2717 -968 -3612 -973 -3616 -3 -3&#10;-781 202 -1729 456 -947 254 -1964 526 -2258 605 -294 79 -915 245 -1380 370&#10;-465 124 -1189 318 -1610 431 -421 113 -771 207 -777 209 -10 3 -13 -248 -13&#10;-1238 l0 -1242 1113 -298 c611 -163 1834 -491 2717 -727 1780 -477 1886 -506&#10;2550 -684 256 -68 661 -177 900 -241 1257 -337 1190 -322 1395 -312 455 22&#10;865 308 1045 729 28 63 330 1184 1400 5178 88 327 290 1081 449 1675 159 594&#10;289 1081 288 1081 -5 4 -2266 608 -2289 612 -19 3 -27 -1 -32 -15z" style="fill: rgb(18, 175, 232);"/>
</g></g></svg>