<?xml version="1.0" encoding="utf-8"?>
<svg id="master-artboard" viewBox="0 0 1400 980" version="1.1" xmlns="http://www.w3.org/2000/svg" x="0px" y="0px" style="enable-background:new 0 0 1400 980;" width="1400px" height="980px"><g transform="matrix(0.19140625, 0, 0, 0.19140625, 210.00004695207554, 0.000003823239239864051)"><g transform="translate(0.000000,5120.000000) scale(0.100000,-0.100000)" fill="#000000" stroke="none">
<path d="M25453 44780 c-161 -42 -195 -70 -520 -422 -2911 -3157 -5322 -6167&#10;-7294 -9108 -3598 -5366 -5591 -10339 -5894 -14710 -52 -757 -52 -1573 1&#10;-2280 260 -3505 1735 -6454 4299 -8596 1633 -1364 3685 -2351 5950 -2863 1764&#10;-398 3627 -499 5445 -296 3119 350 5964 1571 8062 3462 1481 1335 2558 2938&#10;3231 4808 634 1764 877 3775 712 5905 -392 5046 -3002 10851 -7715 17155&#10;-1342 1795 -2805 3573 -4484 5450 -565 632 -1213 1335 -1277 1387 -136 111&#10;-342 154 -516 108z m444 -1787 c4701 -5170 8129 -10079 10173 -14568 1195&#10;-2624 1919 -5118 2150 -7400 62 -622 75 -890 75 -1605 0 -628 -4 -747 -41&#10;-1185 -201 -2422 -1053 -4566 -2500 -6292 -282 -336 -742 -812 -1064 -1099&#10;-1001 -894 -2165 -1617 -3491 -2168 -1166 -484 -2517 -827 -3854 -980 -671&#10;-77 -1171 -101 -1925 -93 -539 6 -667 11 -1105 47 -3250 270 -6188 1554 -8235&#10;3600 -1187 1187 -2060 2613 -2585 4220 -341 1047 -531 2125 -586 3340 -13 291&#10;-7 1209 10 1465 47 701 108 1239 211 1863 481 2904 1688 6050 3623 9437 884&#10;1547 1929 3151 3126 4800 1494 2059 3246 4202 5215 6385 359 397 500 550 507&#10;550 4 0 137 -143 296 -317z" style="fill: rgb(51, 153, 255);"/>
<path d="M22374 26594 c-694 -84 -1169 -428 -1513 -1095 -266 -516 -373 -1111&#10;-331 -1834 41 -701 206 -1238 501 -1635 75 -100 243 -276 350 -366 378 -315&#10;855 -471 1384 -451 557 22 1006 217 1401 611 404 403 612 877 701 1596 22 180&#10;25 758 5 940 -68 616 -220 1054 -490 1417 -78 104 -236 270 -343 359 -311 259&#10;-709 422 -1133 463 -145 14 -394 12 -532 -5z m571 -874 c335 -90 602 -362 724&#10;-735 109 -335 153 -845 121 -1375 -43 -689 -181 -1068 -481 -1320 -319 -267&#10;-787 -293 -1128 -60 -303 205 -468 533 -536 1063 -46 359 -41 912 11 1277 48&#10;333 139 603 257 760 166 223 375 359 620 406 104 20 309 12 412 -16z" style="fill: rgb(51, 153, 255);"/>
<path d="M27434 24938 c-1299 -2505 -1732 -3338 -2266 -4368 -267 -514 -821&#10;-1581 -1230 -2370 -1186 -2284 -1206 -2324 -1213 -2342 -7 -17 22 -18 508 -18&#10;l514 0 2758 5333 c1517 2932 2771 5356 2787 5385 l29 52 -509 0 -510 0 -868&#10;-1672z" style="fill: rgb(51, 153, 255);"/>
<path d="M29080 21234 c-667 -61 -1139 -342 -1485 -885 -79 -124 -209 -385&#10;-260 -522 -176 -478 -236 -1016 -184 -1662 52 -659 238 -1191 553 -1581 81&#10;-101 251 -264 363 -348 374 -281 802 -410 1303 -393 550 19 994 203 1383 576&#10;297 285 500 628 620 1051 201 706 179 1679 -55 2336 -22 62 -70 176 -108 253&#10;-117 240 -247 419 -431 596 -324 311 -690 491 -1139 560 -101 15 -463 28 -560&#10;19z m472 -883 c178 -46 311 -124 450 -261 262 -261 377 -620 410 -1278 26&#10;-502 -26 -1031 -132 -1354 -126 -384 -386 -645 -727 -730 -118 -30 -353 -32&#10;-457 -4 -221 59 -418 197 -571 401 -219 291 -325 863 -295 1600 22 551 103&#10;925 251 1170 82 136 236 286 373 364 83 47 223 96 316 110 96 15 291 6 382&#10;-18z" style="fill: rgb(51, 153, 255);"/>
</g></g></svg>