<?xml version="1.0" encoding="utf-8"?>
<svg id="master-artboard" viewBox="0 0 1400 980" version="1.1" xmlns="http://www.w3.org/2000/svg" x="0px" y="0px" style="enable-background:new 0 0 1400 980;" width="1400px" height="980px"><g transform="matrix(1.9140625, 0, 0, 1.9140625, 210.00004695207554, 0.000001616017925698543)"><g transform="translate(0.000000,512.000000) scale(0.100000,-0.100000)" fill="#000000" stroke="none">
<path d="M793 5105 c-120 -26 -278 -130 -333 -221 -21 -32 -24 -34 -80 -34&#10;-169 0 -312 -104 -362 -262 -34 -112 -14 -231 57 -329 37 -51 37 -53 21 -78&#10;-134 -204 -108 -461 63 -632 196 -195 502 -198 698 -7 l42 42 103 0 c97 1 108&#10;3 178 37 98 46 163 111 209 209 34 71 36 81 36 175 0 82 -4 109 -23 149 l-22&#10;50 45 90 c216 431 -160 913 -632 811z m230 -140 c81 -21 132 -50 194 -107 156&#10;-148 174 -394 42 -570 -21 -29 -39 -61 -39 -70 0 -10 14 -42 30 -72 87 -153&#10;18 -344 -146 -406 -60 -22 -95 -23 -217 -4 -38 6 -40 4 -102 -63 -87 -96 -156&#10;-128 -275 -128 -72 0 -94 4 -145 28 -78 36 -146 104 -182 181 -24 52 -28 74&#10;-28 146 0 72 4 94 28 144 15 33 45 79 67 102 57 62 55 90 -11 145 -92 77 -122&#10;183 -78 279 27 60 54 88 114 116 54 25 114 30 162 14 45 -16 76 1 110 62 94&#10;166 293 251 476 203z" style="fill: rgb(245, 120, 143);"/>
<path d="M4676 4984 c-157 -57 -215 -246 -116 -382 87 -121 268 -134 375 -27&#10;98 98 98 252 0 350 -68 68 -171 92 -259 59z m134 -139 c32 -17 60 -61 60 -95&#10;0 -34 -28 -78 -60 -95 -16 -8 -38 -15 -50 -15 -34 0 -78 28 -95 60 -19 37 -19&#10;63 0 100 28 54 90 73 145 45z" style="fill: rgb(245, 120, 143);"/>
<path d="M3041 4704 c-80 -21 -144 -60 -205 -124 -61 -64 -90 -114 -111 -197&#10;-41 -156 6 -314 127 -429 l58 -56 -54 -59 c-75 -81 -100 -147 -100 -264 0&#10;-126 25 -188 113 -276 49 -49 81 -72 126 -89 77 -29 184 -36 248 -17 46 15 51&#10;14 100 -9 29 -13 66 -26 83 -30 25 -5 35 -15 57 -62 91 -200 308 -314 519&#10;-273 265 52 438 317 374 571 -8 30 -17 65 -21 77 -6 17 -1 25 23 37 78 40 160&#10;153 188 261 51 189 -47 390 -235 483 -72 35 -79 37 -175 37 -72 -1 -112 -6&#10;-138 -17 -37 -17 -38 -17 -95 18 -79 47 -154 73 -251 88 l-83 12 -23 55 c-28&#10;70 -51 102 -114 161 -110 103 -265 141 -411 102z m242 -153 c87 -42 156 -133&#10;172 -227 13 -74 26 -84 110 -84 131 0 236 -33 329 -104 55 -43 69 -43 171 -6&#10;132 48 279 -10 340 -134 52 -107 42 -215 -31 -310 -26 -34 -54 -55 -110 -82&#10;-101 -48 -106 -62 -56 -162 33 -69 37 -85 37 -157 0 -65 -5 -90 -26 -135 -37&#10;-79 -81 -125 -154 -161 -192 -94 -406 0 -472 208 -19 60 -38 75 -108 87 -22 4&#10;-73 23 -113 42 l-73 35 -64 -22 c-171 -57 -326 43 -342 221 -10 103 51 199&#10;154 247 60 28 83 55 83 96 0 43 -16 64 -57 77 -162 52 -255 217 -212 375 26&#10;94 108 180 203 211 58 19 163 12 219 -15z" style="fill: rgb(245, 120, 143);"/>
<path d="M1924 3356 c-123 -40 -214 -162 -214 -288 0 -32 -5 -41 -43 -67 -53&#10;-36 -108 -96 -139 -150 -23 -41 -24 -41 -63 -34 -83 16 -216 9 -285 -16 -434&#10;-158 -470 -751 -57 -946 155 -74 307 -72 464 7 l43 22 38 -36 c43 -42 82 -63&#10;145 -78 36 -10 48 -18 58 -43 18 -43 115 -137 175 -169 28 -15 77 -34 110 -43&#10;33 -8 63 -23 69 -32 6 -10 34 -43 62 -73 162 -174 427 -171 592 5 121 130 145&#10;328 57 478 -31 53 -107 126 -166 161 -25 14 -38 26 -30 26 28 0 138 58 178 94&#10;31 29 48 36 80 36 119 0 245 93 278 205 48 167 -51 338 -218 379 -16 3 -28 11&#10;-28 16 0 23 -133 149 -188 178 -145 77 -318 80 -462 7 -27 -14 -53 -26 -57&#10;-28 -4 -1 -7 39 -8 88 0 73 -4 99 -23 137 -30 61 -90 120 -150 148 -58 28&#10;-160 35 -218 16z m163 -146 c77 -35 107 -114 78 -210 -11 -36 -14 -63 -9 -72&#10;5 -8 37 -40 70 -72 74 -67 97 -70 163 -22 73 54 125 71 216 71 132 0 225 -51&#10;301 -167 46 -68 50 -71 117 -83 49 -8 104 -57 118 -105 33 -108 -61 -214 -172&#10;-196 -46 7 -66 -1 -121 -54 -52 -51 -133 -89 -207 -96 -66 -7 -101 -30 -101&#10;-67 1 -32 47 -159 62 -169 7 -4 29 -12 49 -18 20 -5 55 -23 79 -39 165 -111&#10;155 -360 -19 -455 -130 -70 -291 -27 -360 96 -42 75 -54 85 -117 91 -109 11&#10;-212 85 -255 181 -25 58 -45 72 -107 79 -68 8 -116 37 -148 93 -43 73 -78 81&#10;-136 34 -20 -17 -63 -43 -95 -58 -49 -23 -71 -27 -148 -27 -80 0 -97 3 -155&#10;31 -83 40 -145 102 -184 184 -28 58 -31 75 -31 155 0 80 3 97 31 155 79 167&#10;267 255 434 204 30 -9 75 -17 100 -18 l45 -1 37 74 c41 83 92 141 158 179 81&#10;46 82 48 75 122 -8 87 19 144 85 178 54 27 92 28 147 2z" style="fill: rgb(245, 120, 143);"/>
<path d="M735 3341 c-135 -63 -165 -233 -59 -333 104 -97 264 -64 325 67 76&#10;163 -103 342 -266 266z m125 -141 c40 -40 11 -110 -45 -110 -32 0 -65 33 -65&#10;65 0 32 33 65 65 65 14 0 34 -9 45 -20z" style="fill: rgb(245, 120, 143);"/>
<path d="M4522 2889 c-18 -5 -50 -27 -72 -49 -91 -91 -73 -243 37 -311 57 -36&#10;154 -34 210 3 62 41 88 90 88 168 0 77 -26 127 -85 166 -43 29 -125 39 -178&#10;23z m108 -149 c11 -11 20 -29 20 -40 0 -11 -9 -29 -20 -40 -11 -11 -29 -20&#10;-40 -20 -11 0 -29 9 -40 20 -11 11 -20 29 -20 40 0 11 9 29 20 40 11 11 29 20&#10;40 20 11 0 29 -9 40 -20z" style="fill: rgb(245, 120, 143);"/>
<path d="M3541 1814 c-241 -65 -389 -317 -326 -559 22 -83 61 -149 127 -215&#10;39 -38 58 -65 58 -81 0 -23 -6 -26 -70 -37 -223 -38 -380 -223 -380 -447 0&#10;-407 495 -607 780 -315 31 31 62 71 70 89 l13 33 25 -54 c32 -66 121 -157 185&#10;-186 159 -74 353 -40 466 84 86 92 129 241 103 352 -10 41 -8 47 30 108 36 56&#10;44 64 72 64 43 0 125 23 182 51 166 83 268 285 236 470 -17 98 -56 173 -127&#10;245 -136 137 -335 172 -508 89 l-50 -23 -66 33 c-81 41 -154 63 -238 71 -56 6&#10;-66 10 -78 33 -21 40 -112 126 -164 155 -100 54 -231 69 -340 40z m254 -155&#10;c58 -28 123 -89 147 -140 27 -57 44 -66 138 -72 108 -7 167 -25 260 -82 41&#10;-24 82 -45 90 -45 8 0 35 14 59 30 164 111 384 52 463 -124 32 -72 31 -181 -1&#10;-253 -49 -111 -168 -183 -300 -183 -77 0 -83 -4 -124 -85 -14 -27 -41 -72 -61&#10;-100 -40 -56 -42 -64 -21 -120 58 -163 -74 -345 -250 -345 -116 0 -232 102&#10;-251 220 -8 52 -26 68 -104 99 -84 33 -104 22 -134 -70 -12 -36 -34 -83 -50&#10;-103 -144 -190 -439 -155 -539 63 -33 72 -31 188 6 263 55 112 152 172 282&#10;174 93 1 122 8 129 32 4 16 10 200 7 233 0 9 -25 32 -55 52 -161 107 -191 312&#10;-70 474 26 34 91 77 152 100 55 20 166 11 227 -18z" style="fill: rgb(245, 120, 143);"/>
<path d="M808 1405 c-123 -34 -241 -129 -292 -237 -22 -47 -31 -58 -51 -58&#10;-32 0 -142 -40 -198 -73 -103 -61 -198 -185 -243 -317 -26 -76 -26 -244 0&#10;-320 87 -259 316 -416 576 -397 159 13 303 89 401 213 l36 46 84 2 c66 2 96 7&#10;141 28 79 36 142 98 181 177 29 59 32 74 32 156 0 76 -4 99 -26 145 -14 30&#10;-39 70 -55 89 -25 31 -29 41 -26 87 11 166 -94 349 -242 423 -101 50 -219 63&#10;-318 36z m239 -155 c61 -26 125 -91 156 -158 18 -39 22 -65 22 -153 l0 -105&#10;46 -51 c92 -103 92 -220 -1 -314 -55 -55 -116 -76 -188 -64 -109 18 -110 18&#10;-166 -65 -83 -122 -189 -186 -326 -197 -265 -22 -488 220 -443 483 32 185 165&#10;315 357 349 42 7 82 18 90 24 7 6 23 39 36 72 62 172 248 252 417 179z" style="fill: rgb(245, 120, 143);"/>
<path d="M1620 1187 c-73 -23 -140 -120 -140 -202 0 -113 102 -215 215 -215&#10;113 0 215 102 215 215 0 53 -25 110 -65 150 -59 60 -141 79 -225 52z m125&#10;-152 c14 -13 25 -36 25 -50 0 -33 -42 -75 -75 -75 -33 0 -75 42 -75 75 0 33&#10;42 75 75 75 14 0 37 -11 50 -25z" style="fill: rgb(245, 120, 143);"/>
</g></g></svg>