<?xml version="1.0" encoding="utf-8"?>
<svg id="master-artboard" viewBox="0 0 1400 980" version="1.1" xmlns="http://www.w3.org/2000/svg" x="0px" y="0px" style="enable-background:new 0 0 1400 980;" width="1400px" height="980px"><g transform="matrix(0.196, 0, 0, 0.196, 209.99992965625188, 0)"><g transform="translate(0.000000,5000.000000) scale(0.100000,-0.100000)" fill="#000000" stroke="none">
<path d="M24495 45269 c-499 -38 -985 -148 -1440 -326 -175 -69 -542 -248&#10;-699 -342 -363 -218 -637 -431 -942 -736 -381 -379 -654 -756 -889 -1225 -270&#10;-540 -422 -1086 -475 -1705 -6 -80 -10 -3337 -10 -9786 l0 -9667 -77 -48&#10;c-780 -482 -1551 -1139 -2164 -1844 -1298 -1494 -2094 -3342 -2273 -5280 -31&#10;-334 -39 -557 -33 -989 5 -444 17 -632 62 -1001 131 -1064 436 -2068 921&#10;-3030 784 -1555 1962 -2847 3459 -3795 1197 -758 2583 -1253 4005 -1429 745&#10;-93 1560 -100 2300 -21 2013 216 3877 1036 5419 2382 180 157 559 530 731 718&#10;1398 1531 2245 3427 2429 5440 56 608 53 1267 -9 1840 -194 1793 -891 3465&#10;-2038 4894 -297 370 -777 870 -1127 1176 -559 488 -1178 918 -1808 1255 l-177&#10;95 0 9440 c0 6157 -4 9492 -10 9590 -51 772 -282 1489 -691 2145 -651 1047&#10;-1703 1809 -2918 2114 -195 49 -471 98 -686 122 -168 18 -688 27 -860 13z&#10;m725 -1535 c604 -66 1198 -311 1676 -692 141 -111 408 -378 514 -512 399 -504&#10;628 -1084 680 -1724 7 -88 10 -3256 10 -10030 l1 -9901 282 -125 c318 -140&#10;671 -316 887 -440 1094 -630 2018 -1492 2707 -2525 1047 -1571 1494 -3446&#10;1263 -5295 -250 -1988 -1254 -3795 -2837 -5108 -158 -130 -441 -342 -613 -458&#10;-1768 -1192 -3919 -1652 -6030 -1288 -2057 354 -3903 1480 -5144 3138 -864&#10;1153 -1383 2477 -1530 3896 -30 294 -39 525 -33 908 6 378 18 563 57 862 314&#10;2395 1709 4510 3812 5779 75 45 257 149 405 230 l268 148 5 10144 5 10144 22&#10;130 c12 72 33 184 48 249 174 775 653 1471 1325 1925 154 103 245 156 430 245&#10;550 265 1166 368 1790 300z" style="fill: rgb(255, 204, 102);"/>
<path d="M23418 26179 l-3 -7920 -150 -50 c-228 -76 -410 -151 -631 -258 -536&#10;-261 -981 -577 -1394 -991 -765 -764 -1256 -1734 -1409 -2780 -35 -237 -42&#10;-329 -48 -621 -6 -307 4 -505 38 -764 236 -1785 1455 -3320 3174 -3998 432&#10;-170 868 -277 1365 -333 183 -21 731 -30 930 -15 701 52 1346 229 1959 536&#10;222 111 330 173 551 320 613 405 1102 907 1501 1540 737 1168 941 2623 558&#10;3965 -197 692 -539 1321 -1028 1890 -126 147 -422 438 -571 562 -611 508&#10;-1299 858 -2070 1054 -74 19 -143 34 -152 34 -17 0 -18 354 -18 7875 l0 7875&#10;-1300 0 -1300 0 -2 -7921z" style="fill: rgb(255, 204, 102);"/>
<path d="M30530 40085 l0 -695 2165 0 2165 0 0 695 0 695 -2165 0 -2165 0 0&#10;-695z" style="fill: rgb(255, 204, 102);"/>
<path d="M30530 37585 l0 -695 2165 0 2165 0 0 695 0 695 -2165 0 -2165 0 0&#10;-695z" style="fill: rgb(255, 204, 102);"/>
<path d="M30530 35135 l0 -695 2165 0 2165 0 0 695 0 695 -2165 0 -2165 0 0&#10;-695z" style="fill: rgb(255, 204, 102);"/>
<path d="M30530 32635 l0 -695 2165 0 2165 0 0 695 0 695 -2165 0 -2165 0 0&#10;-695z" style="fill: rgb(255, 204, 102);"/>
<path d="M30530 30175 l0 -695 2165 0 2165 0 0 695 0 695 -2165 0 -2165 0 0&#10;-695z" style="fill: rgb(255, 204, 102);"/>
<path d="M30530 27675 l0 -695 2165 0 2165 0 0 695 0 695 -2165 0 -2165 0 0&#10;-695z" style="fill: rgb(255, 204, 102);"/>
<path d="M30530 25225 l0 -695 2165 0 2165 0 0 695 0 695 -2165 0 -2165 0 0&#10;-695z" style="fill: rgb(255, 204, 102);"/>
<path d="M30530 22725 l0 -695 2165 0 2165 0 0 695 0 695 -2165 0 -2165 0 0&#10;-695z" style="fill: rgb(255, 204, 102);"/>
</g></g></svg>