<?xml version="1.0" encoding="utf-8"?>
<svg id="master-artboard" viewBox="0 0 1400 980" version="1.1" xmlns="http://www.w3.org/2000/svg" x="0px" y="0px" style="enable-background:new 0 0 1400 980;" width="1400px" height="980px"><g transform="matrix(0.19599998779296876, 0, 0, 0.19599998779296876, 210.00007746965366, 7.643927233402792e-7)"><g transform="translate(0.000000,5000.000000) scale(0.100000,-0.100000)" fill="#000000" stroke="none">
<path d="M10640 24320 l0 -20000 14250 0 14250 0 0 20000 0 20000 -14250 0&#10;-14250 0 0 -20000z m13810 9210 l0 -8380 -5815 0 -5815 0 0 8380 0 8380 5815&#10;0 5815 0 0 -8380z m12510 0 l0 -8380 -5712 2 -5713 3 -3 8378 -2 8377 5715 0&#10;5715 0 0 -8380z m-12510 -18225 l0 -8585 -5815 0 -5815 0 0 8585 0 8585 5815&#10;0 5815 0 0 -8585z m12510 0 l0 -8585 -5712 2 -5713 3 -3 8583 -2 8582 5715 0&#10;5715 0 0 -8585z" style="fill: rgb(102, 153, 51);"/>
</g></g></svg>